# Blender v2.82 (sub 7) OBJ File: ''
# www.blender.org
mtllib fancybox.mtl
o Cube
v 0.150412 1.127550 -0.150412
v 0.377552 0.000000 -0.500000
v 0.500000 0.000000 -0.377552
v 0.150412 1.127550 0.150412
v 0.500000 0.000000 0.377552
v 0.377552 0.000000 0.500000
v -0.150412 1.127550 -0.150412
v -0.500000 0.000000 -0.377552
v -0.377552 0.000000 -0.500000
v -0.150412 1.127550 0.150412
v -0.377552 0.000000 0.500000
v -0.500000 0.000000 0.377552
v 0.377552 1.000000 -0.500000
v 0.500000 1.000000 -0.377552
v -0.377552 1.000000 0.500000
v -0.500000 1.000000 0.377552
v 0.500000 1.000000 0.377552
v 0.377552 1.000000 0.500000
v -0.500000 1.000000 -0.377552
v -0.377552 1.000000 -0.500000
v 0.331778 1.077550 -0.389493
v 0.389493 1.077550 -0.331778
v -0.331778 1.077550 0.389493
v -0.389493 1.077550 0.331778
v 0.389493 1.077550 0.331778
v 0.331778 1.077550 0.389493
v -0.389493 1.077550 -0.331778
v -0.331778 1.077550 -0.389493
vt 0.375000 0.530612
vt 0.344388 0.750000
vt 0.125000 0.719388
vt 0.625000 0.030612
vt 0.375000 0.219388
vt 0.375000 0.030612
vt 0.625000 0.780612
vt 0.375000 0.969388
vt 0.375000 0.780612
vt 0.831445 0.548653
vt 0.668555 0.701347
vt 0.673653 0.543555
vt 0.625000 0.530612
vt 0.375000 0.719388
vt 0.625000 0.469388
vt 0.625000 0.969388
vt 0.375000 1.000000
vt 0.625000 0.719388
vt 0.375000 0.280612
vt 0.625000 0.219388
vt 0.625000 0.280612
vt 0.375000 0.469388
vt 0.652627 0.542055
vt 0.655612 0.500000
vt 0.667055 0.527627
vt 0.847373 0.707945
vt 0.844388 0.750000
vt 0.832945 0.722373
vt 0.667055 0.722373
vt 0.652627 0.707945
vt 0.832945 0.527627
vt 0.875000 0.530612
vt 0.847373 0.542055
vt 0.844388 0.500000
vt 0.875000 0.719388
vt 0.655612 0.750000
vt 0.668555 0.548653
vt 0.831445 0.701347
vt 0.673653 0.706445
vt 0.826347 0.543555
vt 0.826347 0.706445
vt 0.125000 0.530612
vt 0.155612 0.500000
vt 0.344388 0.500000
vt 0.155612 0.750000
vt 0.625000 1.000000
vn 0.0000 -1.0000 0.0000
vn -1.0000 0.0000 0.0000
vn 0.0000 0.0000 1.0000
vn 0.0000 1.0000 0.0000
vn 1.0000 0.0000 0.0000
vn 0.7071 0.0000 -0.7071
vn -0.7071 0.0000 0.7071
vn 0.7071 0.0000 0.7071
vn -0.7071 0.0000 -0.7071
vn 0.0000 0.0000 -1.0000
vn 0.4062 0.8186 -0.4062
vn -0.4062 0.8186 0.4062
vn 0.4062 0.8186 0.4062
vn -0.4062 0.8186 -0.4062
vn 0.0000 0.8186 -0.5744
vn 0.5744 0.8186 0.0000
vn -0.5744 0.8186 0.0000
vn 0.0000 0.8186 0.5744
vn 0.1173 0.9862 -0.1173
vn -0.1173 0.9862 0.1173
vn 0.1173 0.9862 0.1173
vn -0.1173 0.9862 -0.1173
vn 0.0000 0.9788 -0.2047
vn 0.2047 0.9788 0.0000
vn -0.2047 0.9788 0.0000
vn 0.0000 0.9788 0.2047
usemtl Material
s off
f 3/1/1 6/2/1 12/3/1
f 16/4/2 8/5/2 12/6/2
f 18/7/3 11/8/3 6/9/3
f 7/10/4 4/11/4 1/12/4
f 14/13/5 5/14/5 3/1/5
f 3/1/6 13/15/6 14/13/6
f 15/16/7 12/17/7 11/8/7
f 6/9/8 17/18/8 18/7/8
f 9/19/9 19/20/9 20/21/9
f 20/21/10 2/22/10 9/19/10
f 22/23/11 13/24/11 21/25/11
f 24/26/12 15/27/12 23/28/12
f 26/29/13 17/18/13 25/30/13
f 28/31/14 19/32/14 27/33/14
f 21/25/15 20/34/15 28/31/15
f 25/30/16 14/13/16 22/23/16
f 27/33/17 16/35/17 24/26/17
f 23/28/18 18/36/18 26/29/18
f 1/37/19 22/23/19 21/25/19
f 10/38/20 24/26/20 23/28/20
f 4/39/21 26/29/21 25/30/21
f 7/40/22 28/31/22 27/33/22
f 1/12/23 28/31/23 7/40/23
f 4/11/24 22/23/24 1/37/24
f 7/10/25 24/26/25 10/38/25
f 10/41/26 26/29/26 4/39/26
f 12/3/1 8/42/1 9/43/1
f 9/43/1 2/44/1 3/1/1
f 3/1/1 5/14/1 6/2/1
f 6/2/1 11/45/1 12/3/1
f 12/3/1 9/43/1 3/1/1
f 16/4/2 19/20/2 8/5/2
f 18/7/3 15/16/3 11/8/3
f 7/10/4 10/41/4 4/11/4
f 14/13/5 17/18/5 5/14/5
f 3/1/6 2/22/6 13/15/6
f 15/16/7 16/46/7 12/17/7
f 6/9/8 5/14/8 17/18/8
f 9/19/9 8/5/9 19/20/9
f 20/21/10 13/15/10 2/22/10
f 22/23/11 14/13/11 13/24/11
f 24/26/12 16/35/12 15/27/12
f 26/29/13 18/36/13 17/18/13
f 28/31/14 20/34/14 19/32/14
f 21/25/15 13/24/15 20/34/15
f 25/30/16 17/18/16 14/13/16
f 27/33/17 19/32/17 16/35/17
f 23/28/18 15/27/18 18/36/18
f 1/12/23 21/25/23 28/31/23
f 4/11/24 25/30/24 22/23/24
f 7/10/25 27/33/25 24/26/25
f 10/41/26 23/28/26 26/29/26
